<svg version="1.1" id="Layer_1" xmlns="http://www.w3.org/2000/svg" x="0" y="0" viewBox="0 0 57.2 47" xml:space="preserve"><style>.st0,.st3,.st7,.st8{fill:#d5ccff;stroke:#000;stroke-width:.22;stroke-miterlimit:10}.st3,.st7,.st8{fill:#dcf2ff;stroke:#1d1d1b;stroke-width:.25}.st7,.st8{fill:#1f2e9b;stroke:#000;stroke-width:.26}.st8{fill:#ff4200;stroke-width:.3}.st12{fill:#1f2e9b}</style><g id="Layer_2_1_"><g id="Layer_1-2"><path class="st0" d="M12 17.7c-.2-1.1-1.2-1.9-2.4-1.9-.3 0-.6.1-.9.2-.7-1.1-2.2-1.4-3.3-.6-.5.4-.9.9-1 1.5-1.3.2-2.2 1.5-1.9 2.8.2 1.3 1.5 2.2 2.8 1.9.6-.1 1.1-.4 1.5-.9.5.6 1.2 1 2 .9.7.1 1.5-.2 2-.7.7.8 1.9.8 2.7.1.4-.4.6-.9.6-1.4 0-1.1-.8-1.9-1.9-1.9H12zM49 22.6c-.2-.8-.8-1.3-1.6-1.3-.2 0-.4 0-.6.1-.5-.8-1.5-1-2.3-.5-.4.3-.6.6-.7 1.1-.9.2-1.5 1-1.3 1.9s1 1.5 1.9 1.3c.4-.1.8-.3 1-.6.3.4.8.7 1.4.7.5 0 1-.1 1.4-.5.3.3.6.4 1 .4.7 0 1.3-.6 1.3-1.3-.1-.7-.7-1.3-1.5-1.3.1 0 0 0 0 0z"/><path d="M56.9 37.7l-1.2-1.2v-1.2c0-1.1-.7-2-1.7-2.3l-6.2-2.2c-1-.4-2-.5-3-.5h-2l-7.2-4.6c-2.1-1.3-4.5-2-7-2h-8.2c-2.4 0-4.7.6-6.8 1.9l-7 4.2-3.3.4C2 30.3 1 31.5 1 32.9l.1 3-1 1.7c0 .1-.1.1-.1.2v2.6c0 1.1.7 2 1.8 2.4l3.3 1h1c.3 0 .5-.2.5-.5.1-3.1 2.7-5.4 5.8-5.3 2.9.1 5.2 2.4 5.3 5.3 0 .3.2.5.5.5h19.5c.3 0 .5-.2.5-.5.1-3.1 2.7-5.4 5.8-5.3 2.9.1 5.2 2.4 5.3 5.3 0 .3.2.5.5.5h.5l4.7-1.2c1.2-.3 2-1.3 2-2.5v-2c.1-.1.1-.3-.1-.4z" fill="#ffdf77" stroke="#000" stroke-width=".2" stroke-miterlimit="10"/><path d="M51.3 33.7h1.9c.7 0 1.3.6 1.3 1.3h0c0 .7-.6 1.3-1.3 1.3h-1.9c-.7 0-1.3-.6-1.3-1.3h0c0-.7.6-1.3 1.3-1.3z" fill="#7aa3c1" stroke="#1d1d1b" stroke-width=".25" stroke-miterlimit="10"/><path class="st3" d="M50.1 33.7H52c.7 0 1.3.6 1.3 1.3 0 .7-.6 1.3-1.3 1.3h-1.9c-.7 0-1.3-.6-1.3-1.3 0-.7.6-1.3 1.3-1.3zM11.7 29.9l4.7-3.4c.7-.5 1.4-.7 2.2-.7h11.8c1 0 2 .3 2.9.8l3.1 2c.6.4.8 1.2.4 1.7-.2.4-.6.6-1.1.6h-24v-1zM1.9 32.3H3c.5 0 .8.4.8.8v1.2c0 .5-.4.8-.8.8H1.9c-.5 0-.9-.4-.9-.8v-1.2c0-.5.4-.8.9-.8z"/><path d="M3.5 32.3h1.1c.5 0 .8.4.8.8v1.2c0 .5-.4.8-.8.8H3.5c-.5 0-.8-.4-.8-.8v-1.2c0-.5.3-.8.8-.8z" fill="#ff4200" stroke="#000" stroke-width=".25" stroke-miterlimit="10"/><path d="M16.5 42.2H38c.4 0 .8.4.8.8h0c0 .4-.4.8-.8.8H16.5c-.4 0-.8-.4-.8-.8h0c0-.5.3-.8.8-.8z" fill="#d5ccff" stroke="#000" stroke-width=".23" stroke-miterlimit="10"/><path d="M3.2 42.2h10.7c.4 0 .8.4.8.8h0c0 .4-.4.8-.8.8H3.2c-.4 0-.8-.4-.8-.8h0c0-.5.4-.8.8-.8z" fill="#d5ccff" stroke="#000" stroke-width=".24" stroke-miterlimit="10"/><circle class="st7" cx="43.5" cy="41.5" r="5.3"/><circle class="st7" cx="12.2" cy="41.5" r="5.3"/><path class="st8" d="M27.8 33.7h1.9c.4 0 .6.3.6.6 0 .4-.3.6-.6.6h-1.9c-.4 0-.6-.3-.6-.6s.3-.6.6-.6zM12.8 33.7h1.9c.4 0 .6.3.6.6 0 .4-.3.6-.6.6h-1.9c-.4 0-.6-.3-.6-.6s.2-.6.6-.6z"/><path d="M23.2 31v4.6s4.6 2 4.6 6.5" fill="none" stroke="#1d1d1b" stroke-width=".25" stroke-miterlimit="10"/><path fill="none" stroke="#1d1d1b" stroke-width=".26" stroke-miterlimit="10" d="M23.2 31.2v-5.4"/><circle class="st0" cx="43.5" cy="41.5" r="3.7"/><circle class="st0" cx="12.2" cy="41.5" r="3.7"/><path fill="none" d="M14.7 8.2h37.9v12.4H14.7z"/><path class="st12" d="M15.6 8.5h3c1.9 0 2.9.9 2.9 2.8 0 1-.2 1.7-.7 2.2-.5.5-1.2.8-2.2.8h-1.3v2.4h-1.7V8.5zm3 4.4c.8 0 1.2-.5 1.2-1.5 0-.5-.1-.9-.3-1.1-.2-.3-.5-.4-.9-.4h-1.3v3h1.3zM22.6 8.2h1.6v8.4h-1.6V8.2zM25.4 14.8c0-.6.2-1.1.5-1.3.3-.3.9-.4 1.6-.5l1.3-.1v-.4c0-.2-.1-.4-.2-.5-.1-.1-.3-.1-.5-.1H27c-.5 0-.9 0-1.2.1v-1.1c.9-.2 1.7-.3 2.4-.3s1.3.2 1.7.5c.3.3.5.8.5 1.5V15c0 .2 0 .3.1.4.1.1.1.1.3.2v1.2c-.4 0-.7 0-1-.1-.2-.1-.5-.2-.7-.3-.6.3-1.2.4-1.8.4-1.3 0-1.9-.7-1.9-2zm3.2.5h.2V14l-1.1.1c-.4 0-.7.3-.7.7 0 .4.2.7.6.7.3 0 .6-.1 1-.2zM31.9 10.6h1.6v.4c.3-.2.6-.3.8-.4.2-.1.5-.1.8-.1.7 0 1.3.2 1.6.7.3.5.5 1.2.5 2.2v3.3h-1.6v-3.2c0-.6-.1-.9-.2-1.2-.1-.2-.4-.3-.8-.3-.3 0-.6.1-.9.2h-.1v4.5H32v-6.1zM41.5 16.5l-.4-.1.1-1.3c.9.2 1.6.2 2.1.2s.8-.1 1-.2c.2-.2.3-.4.3-.7 0-.3-.1-.6-.3-.8-.2-.2-.5-.3-.8-.3h-1.6V12h1.6c.3 0 .5-.1.7-.3.2-.2.3-.5.3-.8 0-.3-.1-.5-.3-.6-.2-.1-.5-.2-1-.2-.4 0-.9.1-1.6.2h-.3L41.2 9c.7-.3 1.5-.4 2.4-.4.9 0 1.6.2 2 .5.4.3.6.9.6 1.6 0 .4-.1.8-.2 1.1-.1.3-.4.5-.7.8.3.2.5.3.6.4.1.1.3.3.3.5.1.2.1.5.1.8 0 .8-.2 1.5-.7 1.9-.4.4-1.1.6-2.1.6-.5 0-1.2-.1-2-.3z"/></g></g></svg>