<svg xmlns="http://www.w3.org/2000/svg" viewBox="0 0 82.48 49.35"><defs><style>.cls-1,.cls-11,.cls-9{fill:#ffdf77;}.cls-1,.cls-10,.cls-11,.cls-12,.cls-13,.cls-2,.cls-3,.cls-4,.cls-5,.cls-6,.cls-7,.cls-8,.cls-9{stroke:#000;}.cls-1,.cls-11,.cls-13,.cls-2,.cls-3,.cls-4,.cls-5,.cls-6,.cls-7,.cls-9{stroke-miterlimit:10;}.cls-1{stroke-width:0.18px;}.cls-10,.cls-12,.cls-13,.cls-2,.cls-8{fill:#ff4200;}.cls-2,.cls-8{stroke-width:0.27px;}.cls-3,.cls-7{fill:#515cdd;}.cls-3{stroke-width:0.24px;}.cls-4{fill:#d5ccff;stroke-width:0.2px;}.cls-5,.cls-6{fill:#fff;}.cls-5{stroke-width:0.25px;}.cls-6{stroke-width:0.19px;}.cls-7{stroke-width:0.28px;}.cls-10,.cls-12,.cls-8{stroke-linejoin:bevel;}.cls-9{stroke-width:0.13px;}.cls-10{stroke-width:0.19px;}.cls-11{stroke-width:0.09px;}.cls-12{stroke-width:0.13px;}.cls-13{stroke-width:0.3px;}</style></defs><g id="Layer_2" data-name="Layer 2"><g id="Layer_1-2" data-name="Layer 1"><path class="cls-1" d="M59.9,45.33H18.37V24.44a21,21,0,0,1,42.05,0"/><path class="cls-2" d="M57.33,45.33H15.81V24.44a21,21,0,0,1,42,0"/><path class="cls-3" d="M34.2,21H45.38L43.3,28.5a.68.68,0,0,0,.12.61.69.69,0,0,0,.55.27h5.59a.71.71,0,0,0,.61-.35l4.45-8h27a.7.7,0,0,0,.7-.7,7.69,7.69,0,0,0-6-7.5,7.43,7.43,0,0,0-1.64-.18H56.1L51.52,3.22a.7.7,0,0,0-.61-.36H45.33a.69.69,0,0,0-.56.28.7.7,0,0,0-.11.61l2.5,8.88H37.47L34.85,6.09a.7.7,0,0,0-.87-.4l-4.19,1.4a.69.69,0,0,0-.47.66v8.37A4.88,4.88,0,0,0,34.2,21Z"/><path class="cls-4" d="M63.91,25.11a2.22,2.22,0,0,0-2.17-1.77,2.1,2.1,0,0,0-.82.16,2.2,2.2,0,0,0-4,.82,2.21,2.21,0,1,0,2.15,3.52,2.07,2.07,0,0,0,1.79.86,2.32,2.32,0,0,0,1.79-.64,1.74,1.74,0,0,0,1.3.58,1.77,1.77,0,0,0,1.77-1.77A1.74,1.74,0,0,0,63.91,25.11Z"/><path class="cls-4" d="M65.5,2.69A2.22,2.22,0,0,0,63.33.92a2.1,2.1,0,0,0-.82.16,2.2,2.2,0,0,0-4,.82,2.21,2.21,0,1,0,2.15,3.52,2.07,2.07,0,0,0,1.79.86,2.32,2.32,0,0,0,1.79-.64,1.74,1.74,0,0,0,1.3.58,1.77,1.77,0,0,0,1.77-1.77A1.74,1.74,0,0,0,65.5,2.69Z"/><path class="cls-4" d="M8.89,17.62a2.22,2.22,0,0,0-2.16-1.77,2,2,0,0,0-.82.16,2.24,2.24,0,0,0-1.83-1,2.21,2.21,0,0,0-2.17,1.81,2.2,2.2,0,1,0,2.14,3.51,2.07,2.07,0,0,0,1.79.86,2.32,2.32,0,0,0,1.79-.64,1.76,1.76,0,0,0,3.07-1.19A1.75,1.75,0,0,0,8.89,17.62Z"/><rect class="cls-5" x="70.51" y="14.97" width="4.23" height="2.3" rx="0.7" transform="translate(88.75 -56.5) rotate(90)"/><path class="cls-6" d="M41.8,16.89a1.55,1.55,0,0,0-1.54-1.54h0a1.55,1.55,0,0,0-1.54,1.54Z"/><path class="cls-6" d="M51.3,16.89a1.55,1.55,0,0,0-1.54-1.54h0a1.55,1.55,0,0,0-1.54,1.54Z"/><path class="cls-6" d="M56.05,16.89a1.55,1.55,0,0,0-1.54-1.54h0A1.55,1.55,0,0,0,53,16.89Z"/><path class="cls-6" d="M60.81,16.89a1.55,1.55,0,0,0-1.54-1.54h0a1.55,1.55,0,0,0-1.54,1.54Z"/><path class="cls-6" d="M65.56,16.89A1.55,1.55,0,0,0,64,15.35h0a1.55,1.55,0,0,0-1.54,1.54Z"/><path class="cls-6" d="M70.31,16.89a1.55,1.55,0,0,0-1.54-1.54h0a1.55,1.55,0,0,0-1.54,1.54Z"/><rect class="cls-6" x="42.89" y="14.97" width="4.23" height="2.3" rx="0.7" transform="translate(61.13 -28.88) rotate(90)"/><path class="cls-5" d="M76.32,12.81v4.62h5.47A7.16,7.16,0,0,0,76.32,12.81Z"/><rect class="cls-3" x="20.56" y="21.81" width="6.48" height="1.9"/><path class="cls-3" d="M21.81,26a.47.47,0,0,1,.43-.32l3.25,0a.44.44,0,0,1,.44.3l1.8,5h1.42a59.05,59.05,0,0,1-2.48-7.33H21a59.17,59.17,0,0,1-2.62,7.33H20.1Z"/><polygon class="cls-3" points="22.58 26.6 21.08 30.93 26.74 30.93 25.17 26.58 22.58 26.6"/><path class="cls-7" d="M25.55,6.05H24V3.47a.63.63,0,0,0-1.22,0V6.05H21.08V7.94h4.47Z"/><path class="cls-3" d="M24.82,7.63H23a56.52,56.52,0,0,1-1.06,14.28h3.92A58.92,58.92,0,0,1,24.82,7.63Z"/><rect class="cls-3" x="16.69" y="30.83" width="13.91" height="1.9"/><path class="cls-3" d="M17.07,38.23a10.17,10.17,0,0,1,14.3,1.42,10,10,0,0,1,2,4h4.74c-.46-.53-1.13-1.33-1.93-2.38a58,58,0,0,1-5.39-8.64H16.54a67,67,0,0,1-5.47,8.65c-.79,1-1.44,1.85-1.89,2.38h4.48A10.13,10.13,0,0,1,17.07,38.23Zm10.84-3.71H30a.47.47,0,0,1,0,.93H27.91a.47.47,0,1,1,0-.93Zm-10.86,0h2.08a.47.47,0,1,1,0,.93H17.05a.47.47,0,0,1,0-.93Z"/><rect class="cls-3" x="7.48" y="43.54" width="6.54" height="1.9"/><rect class="cls-3" x="33.08" y="43.54" width="6.54" height="1.9"/><rect class="cls-1" x="18.93" y="21.81" width="6.48" height="1.9"/><path class="cls-1" d="M20.18,26a.49.49,0,0,1,.44-.32l3.25,0a.45.45,0,0,1,.44.3l1.8,5h1.41a59,59,0,0,1-2.47-7.33h-5.7a56.09,56.09,0,0,1-2.62,7.33h1.75Z"/><polygon class="cls-1" points="20.96 26.6 19.46 30.93 25.12 30.93 23.55 26.58 20.96 26.6"/><path class="cls-1" d="M23.92,6.05H22.71V3.47a.47.47,0,1,0-.93,0V6.05H20.53V7.94h3.39Z"/><path class="cls-1" d="M23.2,7.63H21.33a56.53,56.53,0,0,1-1.07,14.28h3.92A58.92,58.92,0,0,1,23.2,7.63Zm-.55,12.73a.46.46,0,0,1-.46.46.47.47,0,0,1-.47-.46V17.51a.47.47,0,0,1,.47-.47.46.46,0,0,1,.46.47Z"/><rect class="cls-1" x="15.06" y="30.83" width="13.91" height="1.9"/><path class="cls-1" d="M15.44,38.23a10.17,10.17,0,0,1,14.3,1.42,10,10,0,0,1,2,4h4.74c-.47-.53-1.14-1.33-1.93-2.38a58,58,0,0,1-5.39-8.64H14.92a68.22,68.22,0,0,1-5.48,8.65c-.78,1-1.43,1.85-1.88,2.38H12A10.12,10.12,0,0,1,15.44,38.23Zm10.84-3.71h2.08a.47.47,0,1,1,0,.93H26.28a.47.47,0,0,1,0-.93Zm-10.85,0h2.08a.47.47,0,0,1,0,.93H15.43a.47.47,0,1,1,0-.93Z"/><rect class="cls-1" x="5.85" y="43.54" width="6.54" height="1.9"/><rect class="cls-1" x="31.46" y="43.54" width="6.54" height="1.9"/><polygon class="cls-1" points="33.61 45.33 43.84 30.25 53.58 45.33 33.61 45.33"/><polygon class="cls-8" points="49.44 45.33 43.84 30.25 55.02 45.33 49.44 45.33"/><polygon class="cls-9" points="46.67 45.33 53.69 34.98 60.37 45.33 46.67 45.33"/><polygon class="cls-10" points="57.53 45.33 53.69 34.98 61.36 45.33 57.53 45.33"/><polygon class="cls-11" points="57.78 45.33 62.72 38.05 67.42 45.33 57.78 45.33"/><polygon class="cls-12" points="65.42 45.33 62.72 38.05 68.12 45.33 65.42 45.33"/><circle class="cls-13" cx="58.52" cy="45.8" r="3.39"/></g></g></svg>